<!-- Generated by IcoMoon.io -->
<svg version="1.1" xmlns="http://www.w3.org/2000/svg" width="32" height="32" viewBox="0 0 32 32">
<title>fill-camera</title>
<path d="M28.016 9.527c-0.835-0.363-1.803-0.205-2.468 0.408l-2.881 2.667v-1.936c0-2.205-1.793-4-4-4h-12c-2.205 0-4 1.795-4 4v10.667c0 2.207 1.795 4 4 4h12c2.207 0 4-1.793 4-4v-1.935l2.881 2.665c0.428 0.396 0.981 0.603 1.545 0.603 0.311 0 0.624-0.063 0.923-0.193 0.812-0.355 1.317-1.113 1.317-1.979v-8.988c0-0.865-0.505-1.624-1.317-1.979z"></path>
</svg>
