<!-- Generated by IcoMoon.io -->
<svg version="1.1" xmlns="http://www.w3.org/2000/svg" width="1024" height="1024" viewBox="0 0 1024 1024">
<title></title>
<g id="icomoon-ignore">
</g>
<path d="M694.28 18.079l-5.040 113.821c-0.004 0.095-0.007 0.209-0.007 0.321 0 4.176 3.384 7.56 7.56 7.56 1.75 0 3.363-0.595 4.643-1.594l-0.017 0.013 44.52-33.6 37.8 29.4c1.182 0.802 2.64 1.281 4.21 1.281 4.035 0 7.332-3.161 7.548-7.142l0.001-0.020-4.2-115.92 55.86-4.2c1.005-0.072 2.177-0.112 3.36-0.112 27.835 0 50.4 22.565 50.4 50.4 0 0.039 0 0.079 0 0.118v-0.006 907.203c0 0.019 0 0.041 0 0.063 0 27.835-22.565 50.4-50.4 50.4-0.886 0-1.768-0.023-2.643-0.068l0.122 0.005-676.202-30.24c-26.359-1.119-47.416-22.322-48.298-48.637l-0.002-0.083-31.5-831.602c-0.058-0.903-0.091-1.958-0.091-3.021 0-26.833 20.969-48.768 47.415-50.314l0.137-0.006 554.402-34.86zM565.34 398.6c0 19.74 132.721 10.080 150.78-3.36 0-134.4-72.241-205.381-204.121-205.381-132.3 0-205.801 72.241-205.801 180.18 0 186.901 252.001 190.261 252.001 292.321 0 29.4-13.44 46.2-44.1 46.2-40.32 0-56.7-20.58-54.6-90.72 0-15.12-153.3-20.16-158.34 0-11.34 169.261 93.661 218.401 214.201 218.401 117.18 0 208.74-62.58 208.74-175.561 0-200.341-256.201-194.88-256.201-294.001 0-40.74 30.24-46.2 47.46-46.2 18.9 0 52.5 2.94 49.98 78.12z"></path>
</svg>
