<!-- Generated by IcoMoon.io -->
<svg version="1.1" xmlns="http://www.w3.org/2000/svg" width="32" height="32" viewBox="0 0 32 32">
<title>fill-options</title>
<path d="M16 14c-1.103 0-2 0.897-2 2s0.897 2 2 2c1.103 0 2-0.897 2-2s-0.897-2-2-2zM16 20.667c-2.573 0-4.667-2.093-4.667-4.667s2.093-4.667 4.667-4.667c2.573 0 4.667 2.093 4.667 4.667s-2.093 4.667-4.667 4.667zM29.189 13.759l-1.049-3.361c-0.251-0.807-0.797-1.459-1.537-1.837-0.721-0.369-1.541-0.432-2.309-0.176l-0.453 0.151c-0.715 0.241-1.512 0.108-2.124-0.352l-0.143-0.108c-0.583-0.437-0.928-1.151-0.925-1.905l0.003-0.372c0.003-0.847-0.32-1.64-0.911-2.233-0.572-0.575-1.328-0.892-2.131-0.893l-3.401-0.004c-1.672 0-3.037 1.389-3.044 3.101l-0.001 0.321c-0.003 0.797-0.369 1.549-0.977 2.013l-0.172 0.131c-0.684 0.52-1.571 0.668-2.369 0.396-0.744-0.255-1.54-0.2-2.244 0.155-0.72 0.364-1.252 0.996-1.499 1.779l-1.088 3.46c-0.516 1.643 0.351 3.365 1.973 3.921l0.219 0.075c0.691 0.236 1.247 0.839 1.492 1.615l0.073 0.224c0.292 0.861 0.191 1.769-0.308 2.476-0.96 1.364-0.668 3.288 0.652 4.288l2.763 2.099c0.531 0.403 1.159 0.613 1.808 0.613 0.153 0 0.308-0.011 0.463-0.035 0.816-0.128 1.532-0.575 2.015-1.259l0.308-0.437c0.443-0.629 1.119-1.001 1.904-1.023 0.783-0.044 1.529 0.364 1.996 1.036l0.157 0.229c0.479 0.691 1.193 1.144 2.012 1.276 0.812 0.129 1.621-0.072 2.281-0.571l2.748-2.075c1.325-0.999 1.629-2.929 0.677-4.305l-0.348-0.5c-0.437-0.632-0.565-1.455-0.344-2.203 0.241-0.816 0.844-1.456 1.613-1.715l0.268-0.089c1.583-0.529 2.459-2.281 1.953-3.905z"></path>
</svg>
