<!-- Generated by IcoMoon.io -->
<svg version="1.1" xmlns="http://www.w3.org/2000/svg" width="1024" height="1024" viewBox="0 0 1024 1024">
<title></title>
<g id="icomoon-ignore">
</g>
<path fill="#000" d="M512 68.672c-251.156 0-454.579 203.537-454.579 454.579 0 200.886 130.238 371.24 310.817 431.279 22.73 4.282 31.061-9.776 31.061-21.862 0-10.795-0.378-39.396-0.57-77.276-126.447 27.426-153.118-60.986-153.118-60.986-20.685-52.464-50.569-66.48-50.569-66.48-41.178-28.181 3.185-27.618 3.185-27.618 45.645 3.185 69.63 46.821 69.63 46.821 40.537 69.515 106.411 49.436 132.397 37.807 4.090-29.397 15.797-49.436 28.789-60.801-100.953-11.365-207.060-50.455-207.060-224.635 0-49.625 17.614-90.158 46.785-121.98-5.116-11.479-20.457-57.694 3.976-120.312 0 0 38.071-12.199 125.008 46.593 36.368-10.114 75.004-15.113 113.643-15.341 38.641 0.228 77.276 5.23 113.643 15.341 86.367-58.792 124.438-46.593 124.438-46.593 24.433 62.618 9.092 108.833 4.546 120.312 28.979 31.822 46.593 72.351 46.593 121.98 0 174.636-106.258 213.085-207.399 224.258 15.911 13.638 30.682 41.52 30.682 84.094 0 60.837-0.57 109.703-0.57 124.481 0 11.935 7.953 26.136 31.252 21.59 181.869-59.625 311.993-230.093 311.993-430.673 0-251.042-203.537-454.579-454.579-454.579z"></path>
</svg>
