<!-- Generated by IcoMoon.io -->
<svg version="1.1" xmlns="http://www.w3.org/2000/svg" width="32" height="32" viewBox="0 0 32 32">
<title>fill-calendar</title>
<path d="M25.333 14.667h-18.667v-5.333c0-0.735 0.599-1.333 1.333-1.333h1.333v1.333c0 0.733 0.6 1.333 1.333 1.333s1.333-0.6 1.333-1.333v-1.333h8v1.333c0 0.733 0.6 1.333 1.333 1.333s1.333-0.6 1.333-1.333v-1.333h1.333c0.735 0 1.333 0.599 1.333 1.333v5.333zM21.333 22.667h-5.333c-0.733 0-1.333-0.6-1.333-1.333s0.6-1.333 1.333-1.333h5.333c0.733 0 1.333 0.6 1.333 1.333s-0.6 1.333-1.333 1.333zM10.667 22.667c-0.733 0-1.333-0.6-1.333-1.333s0.6-1.333 1.333-1.333c0.733 0 1.333 0.6 1.333 1.333s-0.6 1.333-1.333 1.333zM24 5.333h-1.333v-1.333c0-0.733-0.6-1.333-1.333-1.333s-1.333 0.6-1.333 1.333v1.333h-8v-1.333c0-0.733-0.6-1.333-1.333-1.333s-1.333 0.6-1.333 1.333v1.333h-1.333c-2.205 0-4 1.795-4 4v16c0 2.205 1.795 4 4 4h16c2.205 0 4-1.795 4-4v-16c0-2.205-1.795-4-4-4z"></path>
</svg>
