<!-- Generated by IcoMoon.io -->
<svg version="1.1" xmlns="http://www.w3.org/2000/svg" width="32" height="32" viewBox="0 0 32 32">
<title>fill-microphone</title>
<path d="M21.333 14.667c0 2.941-2.392 5.333-5.333 5.333s-5.333-2.392-5.333-5.333v-6.667c0-2.941 2.392-5.333 5.333-5.333s5.333 2.392 5.333 5.333v6.667zM24 13.333c0.737 0 1.333 0.597 1.333 1.333 0 4.693-3.484 8.576-8 9.227v2.773h2.807c0.657 0 1.193 0.536 1.193 1.193v0.28c0 0.657-0.536 1.193-1.193 1.193h-8.28c-0.657 0-1.193-0.536-1.193-1.193v-0.28c0-0.657 0.536-1.193 1.193-1.193h2.807v-2.773c-4.516-0.651-8-4.533-8-9.227 0-0.736 0.596-1.333 1.333-1.333s1.333 0.597 1.333 1.333c0 3.676 2.991 6.667 6.667 6.667s6.667-2.991 6.667-6.667c0-0.736 0.596-1.333 1.333-1.333z"></path>
</svg>
