<!-- Generated by IcoMoon.io -->
<svg version="1.1" xmlns="http://www.w3.org/2000/svg" width="32" height="32" viewBox="0 0 32 32">
<title>line-user</title>
<path d="M25.333 26.667c0 0.736-0.596 1.333-1.333 1.333s-1.333-0.597-1.333-1.333c0-3.676-2.991-6.667-6.667-6.667s-6.667 2.991-6.667 6.667c0 0.736-0.596 1.333-1.333 1.333s-1.333-0.597-1.333-1.333c0-5.147 4.188-9.333 9.333-9.333s9.333 4.187 9.333 9.333zM16 6.667c1.471 0 2.667 1.196 2.667 2.667s-1.196 2.667-2.667 2.667c-1.471 0-2.667-1.196-2.667-2.667s1.196-2.667 2.667-2.667zM16 14.667c2.941 0 5.333-2.392 5.333-5.333s-2.392-5.333-5.333-5.333c-2.941 0-5.333 2.392-5.333 5.333s2.392 5.333 5.333 5.333z"></path>
</svg>
